<?xml version="1.0" encoding="UTF-8" standalone="no"?>
<svg
   xmlns:dc="http://purl.org/dc/elements/1.1/"
   xmlns:cc="http://creativecommons.org/ns#"
   xmlns:rdf="http://www.w3.org/1999/02/22-rdf-syntax-ns#"
   xmlns:svg="http://www.w3.org/2000/svg"
   xmlns="http://www.w3.org/2000/svg"
   xmlns:sodipodi="http://sodipodi.sourceforge.net/DTD/sodipodi-0.dtd"
   xmlns:inkscape="http://www.inkscape.org/namespaces/inkscape"
   version="1.1"
   id="Layer_1"
   x="0px"
   y="0px"
   viewBox="0 0 122.88 117.52"
   style="enable-background:new 0 0 122.88 117.52"
   xml:space="preserve"
   sodipodi:docname="screenshot-icon.svg"
   inkscape:version="1.0.1 (3bc2e813f5, 2020-09-07)"><metadata
     id="metadata11"><rdf:RDF><cc:Work
         rdf:about=""><dc:format>image/svg+xml</dc:format><dc:type
           rdf:resource="http://purl.org/dc/dcmitype/StillImage" /></cc:Work></rdf:RDF></metadata><defs
     id="defs9" /><sodipodi:namedview
     pagecolor="#ffffff"
     bordercolor="#666666"
     borderopacity="1"
     objecttolerance="10"
     gridtolerance="10"
     guidetolerance="10"
     inkscape:pageopacity="0"
     inkscape:pageshadow="2"
     inkscape:window-width="1920"
     inkscape:window-height="1009"
     id="namedview7"
     showgrid="false"
     inkscape:zoom="7.1647381"
     inkscape:cx="61.439999"
     inkscape:cy="58.759998"
     inkscape:window-x="-8"
     inkscape:window-y="-8"
     inkscape:window-maximized="1"
     inkscape:current-layer="Layer_1" /><g
     id="g4"
     style="fill:#ffffff;fill-opacity:1"><path
       d="M74.01,0v11.98H19.13c-3.93,0.01-7.14,3.22-7.15,7.15v17.74H0V19.13c0-1.07,0.09-2.09,0.26-3.14 c0.91-5.37,3.99-10,8.56-12.96c3.13-2,6.6-3.01,10.31-3.03H74.01L74.01,0z M106.86,101.52v16H94.87v-16H79.6V89.53h15.27V69.72 h11.98v19.81h16.03v11.98H106.86L106.86,101.52z M0,48.85h11.98v33.53c0.01,2.69,1.52,5.12,3.9,6.36L10.4,99.4 c-3.97-2.06-7.06-5.36-8.84-9.46C0.52,87.51,0.01,85.02,0,82.39V48.85L0,48.85z M24.89,101.52V89.53h42.73v11.98H24.89 L24.89,101.52z M106.85,57.74H94.87V19.13c-0.01-3.93-3.22-7.14-7.15-7.15h-1.73V0h1.73c1.07,0,2.09,0.09,3.14,0.26 c5.37,0.91,10,3.99,12.96,8.56c2,3.13,3.01,6.6,3.03,10.31V57.74L106.85,57.74z"
       id="path2"
       style="fill:#ffffff;fill-opacity:1" /></g></svg>
